<svg width="800" height="200" viewBox="0 0 800 200" preserveAspectRatio="none" xmlns="http://www.w3.org/2000/svg">
<g fill="#ffffff">

<polyline points="0.00,101.58 0.50,101.49 1.00,101.54 1.50,101.22 2.00,101.33 2.50,101.37 3.00,101.55 3.50,101.43 4.00,101.63 4.50,101.31 5.00,100.50 5.50,101.45 6.00,200.48 6.50,200.49 7.00,189.52 7.50,100.50 8.00,100.50 8.50,136.33 9.00,200.49 9.50,200.48 10.00,200.34 10.50,151.21 11.00,100.50 11.50,100.50 12.00,100.50 12.50,100.50 13.00,139.28 13.50,196.89 14.00,200.49 14.50,200.47 15.00,200.44 15.50,187.52 16.00,128.26 16.50,100.50 17.00,100.50 17.50,100.50 18.00,100.50 18.50,100.50 19.00,125.41 19.50,192.43 20.00,200.49 20.50,200.47 21.00,200.44 21.50,200.40 22.00,193.85 22.50,144.84 23.00,100.50 23.50,100.50 24.00,100.50 24.50,100.50 25.00,100.50 25.50,100.50 26.00,100.50 26.50,134.56 27.00,193.78 27.50,200.49 28.00,200.47 28.50,200.42 29.00,200.36 29.50,193.39 30.00,163.94 30.50,118.23 31.00,100.50 31.50,100.50 32.00,100.50 32.50,100.50 33.00,100.50 33.50,100.50 34.00,100.50 34.50,100.50 35.00,167.45 35.50,196.53 36.00,200.30 36.50,200.45 37.00,200.46 37.50,200.34 38.00,190.97 38.50,144.23 39.00,100.50 39.50,100.50 40.00,100.50 40.50,100.50 41.00,100.50 41.50,100.50 42.00,100.50 42.50,100.50 43.00,108.08 43.50,117.16 44.00,120.90 44.50,103.09 45.00,100.50 45.50,100.50 46.00,110.44 46.50,109.78 47.00,100.50 47.50,104.08 48.00,130.90 48.50,136.72 49.00,131.77 49.50,113.60 50.00,103.03 50.50,106.70 51.00,110.94 51.50,100.50 52.00,100.50 52.50,104.44 53.00,114.76 53.50,111.82 54.00,100.50 54.50,107.69 55.00,131.47 55.50,134.05 56.00,116.26 56.50,100.50 57.00,102.23 57.50,119.58 58.00,118.72 58.50,117.30 59.00,101.45 59.50,100.50 60.00,100.50 60.50,102.37 61.00,105.22 61.50,107.53 62.00,107.60 62.50,105.58 63.00,110.90 63.50,108.62 64.00,108.65 64.50,109.10 65.00,109.58 65.50,100.50 66.00,100.50 66.50,100.50 67.00,100.50 67.50,105.56 68.00,106.88 68.50,109.00 69.00,112.87 69.50,119.47 70.00,119.59 70.50,107.09 71.00,100.50 71.50,100.50 72.00,100.50 72.50,100.50 73.00,100.50 73.50,100.50 74.00,113.27 74.50,127.00 75.00,128.13 75.50,100.50 76.00,200.47 76.50,200.49 77.00,199.70 77.50,100.50 78.00,100.50 78.50,100.50 79.00,200.49 79.50,200.49 80.00,200.46 80.50,177.54 81.00,100.50 81.50,100.50 82.00,100.50 82.50,100.50 83.00,107.36 83.50,186.68 84.00,200.49 84.50,200.47 85.00,200.44 85.50,196.93 86.00,148.67 86.50,100.50 87.00,100.50 87.50,100.50 88.00,100.50 88.50,100.50 89.00,103.92 89.50,185.75 90.00,200.49 90.50,200.48 91.00,200.45 91.50,200.41 92.00,198.00 92.50,158.39 93.00,100.50 93.50,100.50 94.00,100.50 94.50,100.50 95.00,100.50 95.50,100.50 96.00,100.50 96.50,124.55 97.00,189.41 97.50,200.49 98.00,200.47 98.50,200.43 99.00,200.37 99.50,197.10 100.00,172.16 100.50,124.82 101.00,100.50 101.50,100.50 102.00,100.50 102.50,100.50 103.00,100.50 103.50,100.50 104.00,100.50 104.50,100.50 105.00,166.53 105.50,196.82 106.00,200.44 106.50,200.46 107.00,200.45 107.50,197.72 108.00,179.99 108.50,145.38 109.00,102.85 109.50,100.50 110.00,100.50 110.50,100.50 111.00,100.50 111.50,100.50 112.00,100.50 112.50,100.50 113.00,100.50 113.50,100.50 114.00,101.22 114.50,100.50 115.00,100.50 115.50,102.64 116.00,103.12 116.50,102.94 117.00,102.08 117.50,105.85 118.00,108.67 118.50,109.90 119.00,108.37 119.50,107.80 120.00,106.15 120.50,104.36 121.00,100.63 121.50,100.50 122.00,100.50 122.50,104.60 123.00,105.83 123.50,107.88 124.00,108.67 124.50,106.58 125.00,106.58 125.50,107.79 126.00,110.56 126.50,108.74 127.00,104.49 127.50,100.50 128.00,100.50 128.50,100.50 129.00,100.50 129.50,103.32 130.00,104.41 130.50,108.28 131.00,110.34 131.50,108.92 132.00,105.77 132.50,100.50 133.00,100.50 133.50,100.50 134.00,100.50 134.50,100.50 135.00,100.50 135.50,100.50 136.00,102.89 136.50,103.31 137.00,101.88 137.50,105.82 138.00,105.67 138.50,105.37 139.00,105.05 139.50,100.50 140.00,100.50 140.50,100.50 141.00,100.50 141.50,100.50 142.00,100.50 142.50,102.62 143.00,105.04 143.50,107.47 144.00,107.57 144.50,105.39 145.00,102.52 145.50,101.41 146.00,101.97 146.50,102.21 147.00,100.80 147.50,100.50 148.00,100.50 148.50,100.50 149.00,101.16 149.50,103.28 150.00,107.06 150.50,109.41 151.00,108.66 151.50,107.20 152.00,105.08 152.50,100.50 153.00,100.50 153.50,100.50 154.00,103.10 154.50,102.17 155.00,100.50 155.50,100.50 156.00,101.75 156.50,108.19 157.00,108.43 157.50,107.78 158.00,105.82 158.50,106.27 159.00,105.72 159.50,101.67 160.00,100.50 160.50,100.50 161.00,100.50 161.50,101.62 162.00,104.24 162.50,104.51 163.00,103.52 163.50,104.98 164.00,104.58 164.50,105.50 165.00,103.07 165.50,100.66 166.00,100.50 166.50,100.50 167.00,100.50 167.50,100.50 168.00,100.50 168.50,100.50 169.00,103.84 169.50,106.60 170.00,107.56 170.50,107.21 171.00,104.90 171.50,108.62 172.00,106.47 172.50,101.56 173.00,100.50 173.50,100.73 174.00,102.36 174.50,102.91 175.00,103.92 175.50,103.34 176.00,104.90 176.50,105.06 177.00,103.80 177.50,103.98 178.00,104.47 178.50,107.04 179.00,106.54 179.50,102.33 180.00,100.50 180.50,100.50 181.00,106.94 181.50,106.73 182.00,105.67 182.50,109.89 183.00,106.73 183.50,107.19 184.00,105.59 184.50,104.31 185.00,103.38 185.50,105.74 186.00,107.75 186.50,103.75 187.00,101.62 187.50,100.50 188.00,100.50 188.50,100.50 189.00,103.33 189.50,107.04 190.00,106.50 190.50,107.32 191.00,104.64 191.50,104.34 192.00,102.91 192.50,101.73 193.00,100.50 193.50,100.50 194.00,100.65 194.50,101.16 195.00,101.14 195.50,101.73 196.00,101.88 196.50,103.80 197.00,104.75 197.50,104.82 198.00,101.78 198.50,100.98 199.00,101.88 199.50,101.53 200.00,100.50 200.50,100.50 201.00,100.86 201.50,101.03 202.00,101.23 202.50,102.22 203.00,103.79 203.50,105.40 204.00,104.88 204.50,101.27 205.00,100.50 205.50,101.09 206.00,102.02 206.50,102.22 207.00,100.84 207.50,100.50 208.00,102.35 208.50,102.29 209.00,100.50 209.50,100.50 210.00,103.23 210.50,105.35 211.00,105.01 211.50,102.86 212.00,100.50 212.50,100.50 213.00,100.50 213.50,100.50 214.00,101.21 214.50,101.84 215.00,101.79 215.50,101.69 216.00,100.50 216.50,101.21 217.00,102.95 217.50,102.67 218.00,102.11 218.50,101.10 219.00,103.14 219.50,103.92 220.00,102.18 220.50,100.50 221.00,100.50 221.50,100.87 222.00,101.07 222.50,101.20 223.00,100.50 223.50,102.40 224.00,104.03 224.50,103.65 225.00,102.23 225.50,100.50 226.00,100.50 226.50,100.51 227.00,100.83 227.50,100.50 228.00,101.35 228.50,101.37 229.00,100.92 229.50,100.50 230.00,101.23 230.50,102.97 231.00,103.14 231.50,102.44 232.00,102.11 232.50,102.19 233.00,101.90 233.50,100.50 234.00,100.50 234.50,101.68 235.00,104.59 235.50,103.87 236.00,104.88 236.50,103.97 237.00,104.62 237.50,105.45 238.00,103.97 238.50,102.90 239.00,109.27 239.50,110.33 240.00,117.26 240.50,110.39 241.00,107.99 241.50,113.28 242.00,107.24 242.50,109.79 243.00,120.43 243.50,120.46 244.00,117.33 244.50,110.92 245.00,114.81 245.50,112.75 246.00,112.49 246.50,108.47 247.00,110.51 247.50,114.70 248.00,116.29 248.50,108.55 249.00,104.55 249.50,102.53 250.00,106.44 250.50,108.43 251.00,108.40 251.50,105.62 252.00,105.44 252.50,106.87 253.00,104.60 253.50,105.76 254.00,102.49 254.50,102.66 255.00,104.57 255.50,104.07 256.00,104.47 256.50,104.63 257.00,103.94 257.50,103.78 258.00,103.93 258.50,102.15 259.00,101.09 259.50,102.24 260.00,103.79 260.50,103.00 261.00,102.32 261.50,103.00 262.00,101.07 262.50,101.81 263.00,103.10 263.50,104.63 264.00,103.45 264.50,102.80 265.00,102.54 265.50,100.83 266.00,100.50 266.50,100.50 267.00,101.12 267.50,103.22 268.00,103.49 268.50,102.87 269.00,102.03 269.50,101.31 270.00,100.77 270.50,100.50 271.00,101.10 271.50,101.11 272.00,101.85 272.50,101.75 273.00,100.71 273.50,100.50 274.00,101.08 274.50,102.17 275.00,102.03 275.50,101.97 276.00,101.56 276.50,100.89 277.00,100.61 277.50,100.50 278.00,100.50 278.50,100.50 279.00,101.07 279.50,101.75 280.00,102.38 280.50,102.93 281.00,102.58 281.50,101.29 282.00,100.50 282.50,100.50 283.00,100.50 283.50,100.50 284.00,100.62 284.50,100.61 285.00,199.29 285.50,199.61 286.00,198.31 286.50,100.50 287.00,199.70 287.50,198.17 288.00,190.90 288.50,199.14 289.00,199.12 289.50,200.03 290.00,199.81 290.50,198.27 291.00,199.77 291.50,193.78 292.00,195.51 292.50,192.31 293.00,167.84 293.50,187.69 294.00,186.32 294.50,172.15 295.00,148.00 295.50,194.15 296.00,190.16 296.50,178.83 297.00,194.26 297.50,193.18 298.00,177.35 298.50,186.09 299.00,197.48 299.50,196.31 300.00,176.22 300.50,175.57 301.00,189.11 301.50,159.76 302.00,186.26 302.50,181.12 303.00,181.26 303.50,170.05 304.00,163.89 304.50,167.52 305.00,159.38 305.50,178.42 306.00,177.20 306.50,158.30 307.00,147.41 307.50,150.97 308.00,162.78 308.50,162.80 309.00,168.19 309.50,158.09 310.00,129.33 310.50,149.09 311.00,149.41 311.50,150.32 312.00,149.90 312.50,150.08 313.00,135.59 313.50,136.06 314.00,137.61 314.50,144.10 315.00,136.27 315.50,137.36 316.00,132.96 316.50,124.69 317.00,150.16 317.50,138.79 318.00,132.65 318.50,123.76 319.00,123.75 319.50,136.57 320.00,125.70 320.50,119.91 321.00,125.97 321.50,118.65 322.00,118.94 322.50,117.64 323.00,116.20 323.50,125.42 324.00,112.77 324.50,113.28 325.00,109.61 325.50,112.15 326.00,109.46 326.50,112.68 327.00,108.37 327.50,105.97 328.00,107.23 328.50,106.52 329.00,106.02 329.50,104.70 330.00,104.89 330.50,103.45 331.00,102.04 331.50,103.24 332.00,103.78 332.50,102.47 333.00,101.88 333.50,102.62 334.00,101.97 334.50,102.08 335.00,101.42 335.50,102.05 336.00,102.27 336.50,102.19 337.00,101.39 337.50,101.73 338.00,102.41 338.50,102.31 339.00,101.86 339.50,101.01 340.00,101.40 340.50,101.85 341.00,102.07 341.50,101.66 342.00,101.30 342.50,101.74 343.00,101.66 343.50,100.93 344.00,100.59 344.50,100.96 345.00,101.86 345.50,101.44 346.00,101.34 346.50,100.96 347.00,100.64 347.50,100.50 348.00,100.50 348.50,101.25 349.00,102.04 349.50,102.22 350.00,101.69 350.50,100.53 351.00,100.50 351.50,100.86 352.00,100.91 352.50,100.50 353.00,100.50 353.50,100.50 354.00,100.73 354.50,100.91 355.00,100.50 355.50,100.58 356.00,100.93 356.50,101.27 357.00,101.19 357.50,100.90 358.00,101.29 358.50,100.68 359.00,100.50 359.50,100.50 360.00,100.75 360.50,101.26 361.00,101.17 361.50,101.56 362.00,101.18 362.50,101.54 363.00,101.63 363.50,100.89 364.00,100.50 364.50,101.35 365.00,101.43 365.50,101.15 366.00,101.15 366.50,100.59 367.00,100.99 367.50,101.18 368.00,101.22 368.50,101.27 369.00,101.43 369.50,101.34 370.00,100.80 370.50,100.53 371.00,100.95 371.50,100.99 372.00,100.50 372.50,100.50 373.00,101.43 373.50,101.70 374.00,101.87 374.50,101.08 375.00,100.50 375.50,100.51 376.00,100.77 376.50,100.50 377.00,100.50 377.50,100.86 378.00,101.39 378.50,101.97 379.00,101.61 379.50,101.16 380.00,101.15 380.50,101.65 381.00,101.35 381.50,101.56 382.00,103.00 382.50,103.77 383.00,102.95 383.50,103.77 384.00,104.49 384.50,105.19 385.00,106.03 385.50,105.60 386.00,106.31 386.50,106.14 387.00,106.86 387.50,109.20 388.00,108.52 388.50,106.54 389.00,106.43 389.50,108.32 390.00,107.93 390.50,105.08 391.00,106.64 391.50,104.87 392.00,105.38 392.50,107.07 393.00,106.80 393.50,105.41 394.00,105.86 394.50,108.70 395.00,108.54 395.50,108.45 396.00,111.16 396.50,106.07 397.00,104.63 397.50,103.16 398.00,103.29 398.50,103.22 399.00,103.54 399.50,103.32 400.00,102.89 400.50,102.16 401.00,102.80 401.50,102.74 402.00,103.05 402.50,101.96 403.00,102.79 403.50,103.73 404.00,102.22 404.50,102.20 405.00,102.05 405.50,102.82 406.00,102.49 406.50,102.52 407.00,102.82 407.50,101.45 408.00,101.33 408.50,101.16 409.00,100.64 409.50,101.56 410.00,101.71 410.50,101.49 411.00,100.72 411.50,101.46 412.00,101.53 412.50,101.56 413.00,100.59 413.50,100.50 414.00,101.36 414.50,101.89 415.00,102.04 415.50,101.59 416.00,101.19 416.50,101.25 417.00,101.45 417.50,101.25 418.00,100.79 418.50,100.60 419.00,100.68 419.50,100.63 420.00,100.86 420.50,101.26 421.00,101.25 421.50,101.24 422.00,101.19 422.50,101.48 423.00,101.71 423.50,101.42 424.00,100.90 424.50,100.50 425.00,100.50 425.50,100.50 426.00,101.09 426.50,101.07 427.00,101.26 427.50,101.15 428.00,101.40 428.50,101.34 429.00,100.68 429.50,101.00 430.00,101.00 430.50,100.89 431.00,100.78 431.50,100.88 432.00,100.55 432.50,100.66 433.00,100.75 433.50,101.21 434.00,101.42 434.50,101.54 435.00,101.11 435.50,100.50 436.00,100.50 436.50,100.90 437.00,101.01 437.50,100.75 438.00,100.69 438.50,101.02 439.00,101.06 439.50,101.26 440.00,101.03 440.50,100.86 441.00,100.96 441.50,100.50 442.00,100.92 442.50,101.28 443.00,101.34 443.50,101.00 444.00,100.50 444.50,100.50 445.00,108.84 445.50,107.72 446.00,133.76 446.50,151.29 447.00,137.14 447.50,165.87 448.00,152.28 448.50,167.69 449.00,160.40 449.50,129.64 450.00,147.78 450.50,132.82 451.00,134.93 451.50,134.73 452.00,128.91 452.50,133.63 453.00,129.76 453.50,137.47 454.00,111.32 454.50,129.81 455.00,111.88 455.50,127.34 456.00,113.14 456.50,127.07 457.00,122.32 457.50,127.50 458.00,126.24 458.50,111.18 459.00,124.73 459.50,109.95 460.00,119.89 460.50,119.10 461.00,123.60 461.50,114.24 462.00,118.72 462.50,119.54 463.00,109.39 463.50,116.04 464.00,103.90 464.50,119.48 465.00,106.31 465.50,118.73 466.00,107.39 466.50,116.09 467.00,114.52 467.50,105.88 468.00,111.63 468.50,102.52 469.00,115.77 469.50,105.46 470.00,113.19 470.50,108.44 471.00,112.27 471.50,112.79 472.00,106.35 472.50,112.52 473.00,100.78 473.50,110.11 474.00,102.18 474.50,109.69 475.00,104.51 475.50,109.43 476.00,108.21 476.50,104.51 477.00,107.79 477.50,100.50 478.00,107.51 478.50,102.68 479.00,106.77 479.50,104.94 480.00,106.62 480.50,106.75 481.00,103.61 481.50,105.03 482.00,100.50 482.50,105.54 483.00,101.96 483.50,105.35 484.00,103.91 484.50,104.50 485.00,104.70 485.50,102.15 486.00,103.99 486.50,100.50 487.00,103.38 487.50,101.48 488.00,104.59 488.50,104.38 489.00,103.54 489.50,104.25 490.00,101.04 490.50,103.52 491.00,100.50 491.50,103.53 492.00,100.85 492.50,103.49 493.00,102.13 493.50,102.50 494.00,102.65 494.50,100.57 495.00,100.50 495.50,171.62 496.00,200.49 496.50,191.55 497.00,150.00 497.50,100.50 498.00,100.50 498.50,165.25 499.00,200.49 499.50,199.50 500.00,174.82 500.50,114.45 501.00,100.50 501.50,100.50 502.00,100.50 502.50,100.50 503.00,156.33 503.50,188.77 504.00,200.41 504.50,200.49 505.00,199.88 505.50,168.33 506.00,100.50 506.50,100.50 507.00,100.50 507.50,100.50 508.00,100.50 508.50,100.50 509.00,151.30 509.50,189.03 510.00,199.85 510.50,200.48 511.00,200.45 511.50,200.43 512.00,189.07 512.50,144.00 513.00,100.50 513.50,100.50 514.00,100.50 514.50,100.50 515.00,100.50 515.50,100.50 516.00,100.50 516.50,151.38 517.00,189.32 517.50,199.69 518.00,200.48 518.50,200.48 519.00,200.48 519.50,188.97 520.00,159.91 520.50,116.02 521.00,100.50 521.50,100.50 522.00,100.50 522.50,100.50 523.00,100.50 523.50,100.50 524.00,100.50 524.50,100.50 525.00,166.72 525.50,199.36 526.00,200.39 526.50,200.32 527.00,200.25 527.50,200.25 528.00,170.39 528.50,138.32 529.00,106.91 529.50,100.50 530.00,100.50 530.50,100.50 531.00,100.50 531.50,100.50 532.00,100.50 532.50,100.50 533.00,104.94 533.50,100.59 534.00,110.18 534.50,105.91 535.00,117.29 535.50,111.28 536.00,110.29 536.50,108.93 537.00,110.29 537.50,115.19 538.00,103.98 538.50,111.40 539.00,103.49 539.50,112.94 540.00,103.97 540.50,110.55 541.00,111.04 541.50,107.87 542.00,110.67 542.50,107.55 543.00,113.73 543.50,103.05 544.00,110.92 544.50,107.96 545.00,109.42 545.50,108.63 546.00,106.75 546.50,111.11 547.00,106.15 547.50,107.28 548.00,102.14 548.50,109.83 549.00,105.02 549.50,105.76 550.00,105.01 550.50,106.49 551.00,107.56 551.50,100.50 552.00,104.66 552.50,100.50 553.00,105.17 553.50,100.78 554.00,104.68 554.50,103.82 555.00,103.28 555.50,103.56 556.00,100.50 556.50,103.53 557.00,100.50 557.50,103.46 558.00,101.21 558.50,103.61 559.00,103.14 559.50,102.21 560.00,102.68 560.50,101.47 561.00,103.46 561.50,100.50 562.00,103.40 562.50,102.12 563.00,102.18 563.50,102.00 564.00,103.29 564.50,103.84 565.00,101.91 565.50,102.74 566.00,100.94 566.50,103.30 567.00,100.87 567.50,102.91 568.00,102.72 568.50,102.66 569.00,102.71 569.50,100.50 570.00,100.50 570.50,200.45 571.00,200.45 571.50,191.31 572.00,100.50 572.50,100.50 573.00,124.56 573.50,200.45 574.00,200.43 574.50,200.39 575.00,155.35 575.50,100.50 576.00,100.50 576.50,100.50 577.00,100.50 577.50,135.51 578.00,196.09 578.50,200.45 579.00,200.42 579.50,200.38 580.00,189.01 580.50,131.69 581.00,100.50 581.50,100.50 582.00,100.50 582.50,100.50 583.00,100.50 583.50,122.05 584.00,191.36 584.50,200.45 585.00,200.44 585.50,200.39 586.00,200.35 586.50,194.74 587.00,148.35 587.50,100.50 588.00,100.50 588.50,100.50 589.00,100.50 589.50,100.50 590.00,100.50 590.50,100.50 591.00,131.75 591.50,192.74 592.00,200.45 592.50,200.43 593.00,200.37 593.50,200.32 594.00,195.58 594.50,168.72 595.00,124.34 595.50,100.50 596.00,100.50 596.50,100.50 597.00,100.50 597.50,100.50 598.00,100.50 598.50,100.50 599.00,111.33 599.50,176.51 600.00,200.42 600.50,200.42 601.00,200.47 601.50,200.45 602.00,200.36 602.50,185.92 603.00,142.14 603.50,122.16 604.00,100.50 604.50,100.50 605.00,100.50 605.50,100.50 606.00,100.50 606.50,100.50 607.00,100.50 607.50,100.50 608.00,113.89 608.50,126.76 609.00,131.06 609.50,116.24 610.00,112.74 610.50,115.19 611.00,109.88 611.50,100.50 612.00,100.50 612.50,104.01 613.00,102.87 613.50,100.50 614.00,102.49 614.50,105.28 615.00,125.25 615.50,137.27 616.00,144.64 616.50,143.67 617.00,115.72 617.50,100.50 618.00,100.50 618.50,100.50 619.00,100.50 619.50,100.50 620.00,100.50 620.50,112.32 621.00,139.69 621.50,165.02 622.00,164.51 622.50,148.79 623.00,106.50 623.50,100.50 624.00,100.50 624.50,100.50 625.00,100.50 625.50,100.50 626.00,100.50 626.50,114.93 627.00,137.19 627.50,139.85 628.00,129.27 628.50,118.13 629.00,113.07 629.50,100.50 630.00,100.50 630.50,100.50 631.00,100.50 631.50,100.50 632.00,100.50 632.50,110.69 633.00,122.57 633.50,117.77 634.00,110.27 634.50,100.50 635.00,105.71 635.50,112.53 636.00,108.89 636.50,100.50 637.00,100.50 637.50,119.66 638.00,125.54 638.50,125.69 639.00,108.44 639.50,100.50 640.00,100.50 640.50,100.50 641.00,100.50 641.50,100.50 642.00,100.50 642.50,119.72 643.00,129.77 643.50,126.69 644.00,106.35 644.50,109.11 645.00,116.36 645.50,115.71 646.00,103.47 646.50,100.50 647.00,100.50 647.50,100.50 648.00,100.80 648.50,103.71 649.00,114.65 649.50,127.74 650.00,128.75 650.50,119.13 651.00,100.50 651.50,100.50 652.00,104.66 652.50,102.03 653.00,100.50 653.50,100.50 654.00,100.50 654.50,106.80 655.00,120.10 655.50,122.81 656.00,121.86 656.50,115.99 657.00,110.81 657.50,100.50 658.00,100.50 658.50,100.50 659.00,100.50 659.50,101.44 660.00,104.54 660.50,100.50 661.00,106.58 661.50,119.45 662.00,124.57 662.50,124.56 663.00,109.57 663.50,100.50 664.00,100.50 664.50,100.50 665.00,100.50 665.50,100.50 666.00,100.50 666.50,117.65 667.00,118.89 667.50,118.40 668.00,116.13 668.50,107.88 669.00,107.73 669.50,106.23 670.00,100.50 670.50,100.50 671.00,100.50 671.50,100.50 672.00,100.50 672.50,101.68 673.00,108.84 673.50,118.84 674.00,121.06 674.50,122.09 675.00,118.21 675.50,103.86 676.00,100.50 676.50,100.50 677.00,100.50 677.50,105.21 678.00,109.92 678.50,110.50 679.00,112.06 679.50,115.65 680.00,115.50 680.50,116.90 681.00,117.09 681.50,115.17 682.00,113.32 682.50,100.50 683.00,100.50 683.50,100.50 684.00,106.06 684.50,109.13 685.00,110.89 685.50,111.97 686.00,113.24 686.50,114.63 687.00,109.64 687.50,108.31 688.00,105.49 688.50,106.11 689.00,100.69 689.50,100.50 690.00,100.50 690.50,100.50 691.00,103.81 691.50,108.35 692.00,115.58 692.50,114.79 693.00,114.60 693.50,112.75 694.00,103.33 694.50,100.50 695.00,100.50 695.50,100.50 696.00,100.50 696.50,100.50 697.00,100.50 697.50,105.89 698.00,109.82 698.50,114.09 699.00,115.11 699.50,112.30 700.00,107.55 700.50,104.65 701.00,100.50 701.50,100.50 702.00,100.50 702.50,100.50 703.00,100.50 703.50,108.70 704.00,109.78 704.50,108.01 705.00,108.71 705.50,108.63 706.00,108.62 706.50,105.19 707.00,101.89 707.50,100.50 708.00,100.50 708.50,100.50 709.00,100.50 709.50,100.50 710.00,100.50 710.50,106.46 711.00,113.46 711.50,114.43 712.00,114.50 712.50,109.77 713.00,103.06 713.50,100.50 714.00,100.50 714.50,100.50 715.00,100.50 715.50,100.50 716.00,100.50 716.50,102.32 717.00,100.73 717.50,104.66 718.00,106.36 718.50,111.97 719.00,112.95 719.50,110.79 720.00,102.12 720.50,100.50 721.00,100.50 721.50,100.50 722.00,100.50 722.50,100.50 723.00,101.10 723.50,106.37 724.00,107.84 724.50,107.69 725.00,105.91 725.50,104.05 726.00,104.30 726.50,102.88 727.00,100.50 727.50,100.50 728.00,100.50 728.50,100.50 729.00,100.50 729.50,106.51 730.00,112.11 730.50,104.92 731.00,108.84 731.50,119.77 732.00,119.92 732.50,105.45 733.00,103.07 733.50,100.50 734.00,100.50 734.50,111.98 735.00,108.03 735.50,115.02 736.00,115.56 736.50,106.23 737.00,113.27 737.50,102.61 738.00,117.40 738.50,102.80 739.00,120.06 739.50,114.91 740.00,134.21 740.50,132.94 741.00,125.54 741.50,135.58 742.00,106.38 742.50,131.67 743.00,118.64 743.50,118.93 744.00,119.98 744.50,131.85 745.00,108.42 745.50,113.25 746.00,129.08 746.50,111.02 747.00,119.92 747.50,109.89 748.00,113.72 748.50,101.28 749.00,114.59 749.50,112.25 750.00,112.86 750.50,129.46 751.00,121.86 751.50,123.05 752.00,116.10 752.50,113.12 753.00,104.67 753.50,109.23 754.00,111.21 754.50,110.50 755.00,107.96 755.50,105.94 756.00,111.52 756.50,104.61 757.00,113.28 757.50,110.93 758.00,111.19 758.50,112.59 759.00,108.72 759.50,108.09 760.00,104.33 760.50,104.58 761.00,100.50 761.50,106.67 762.00,105.23 762.50,107.02 763.00,105.85 763.50,111.50 764.00,110.15 764.50,105.96 765.00,106.35 765.50,103.06 766.00,107.42 766.50,102.01 767.00,105.40 767.50,106.38 768.00,104.66 768.50,104.42 769.00,100.50 769.50,102.51 770.00,102.28 770.50,107.99 771.00,105.05 771.50,108.22 772.00,108.05 772.50,103.27 773.00,103.02 773.50,100.50 774.00,101.20 774.50,100.50 775.00,102.07 775.50,100.54 776.00,102.77 776.50,103.32 777.00,103.20 777.50,103.73 778.00,102.19 778.50,104.75 779.00,104.52 779.50,104.61 780.00,100.50 780.50,100.50 781.00,100.50 781.50,100.63 782.00,100.72 782.50,100.87 783.00,102.78 783.50,105.17 784.00,105.29 784.50,103.39 785.00,100.50 785.50,100.50 786.00,101.60 786.50,101.65 787.00,100.50 787.50,100.81 788.00,100.50 788.50,101.76 789.00,101.23 789.50,101.74 790.00,102.21 790.50,101.32 791.00,101.55 791.50,100.98 792.00,103.65 792.50,103.78 793.00,102.13 793.50,100.64 794.00,100.50 794.50,100.50 795.00,102.30 795.50,103.48 796.00,100.69 796.50,101.49 797.00,101.86 797.50,104.49 798.00,112.21 798.50,200.02 799.00,173.07 799.50,200.17 799.50,1.34 799.00,0.09 798.50,0.03 798.00,96.43 797.50,96.62 797.00,99.00 796.50,99.19 796.00,98.24 795.50,99.50 795.00,98.77 794.50,97.51 794.00,95.46 793.50,95.98 793.00,99.50 792.50,99.50 792.00,99.50 791.50,97.71 791.00,98.05 790.50,98.65 790.00,99.50 789.50,98.41 789.00,98.26 788.50,99.50 788.00,98.27 787.50,98.42 787.00,97.64 786.50,98.44 786.00,97.95 785.50,97.22 785.00,98.14 784.50,98.97 784.00,99.50 783.50,99.50 783.00,99.06 782.50,97.56 782.00,97.94 781.50,96.96 781.00,95.71 780.50,94.40 780.00,94.22 779.50,99.04 779.00,99.50 778.50,99.50 778.00,96.53 777.50,98.18 777.00,99.50 776.50,99.50 776.00,96.24 775.50,94.94 775.00,98.47 774.50,95.96 774.00,97.85 773.50,91.30 773.00,93.39 772.50,98.19 772.00,99.27 771.50,99.50 771.00,97.84 770.50,99.50 770.00,95.00 769.50,96.13 769.00,90.17 768.50,92.44 768.00,94.94 767.50,96.63 767.00,95.28 766.50,92.20 766.00,97.94 765.50,92.15 765.00,99.50 764.50,94.73 764.00,97.57 763.50,95.86 763.00,97.38 762.50,92.14 762.00,88.13 761.50,94.77 761.00,91.36 760.50,94.08 760.00,88.87 759.50,94.88 759.00,91.48 758.50,94.63 758.00,92.13 757.50,92.22 757.00,98.45 756.50,93.95 756.00,98.01 755.50,83.47 755.00,89.87 754.50,87.07 754.00,87.58 753.50,88.06 753.00,82.15 752.50,87.90 752.00,84.26 751.50,99.50 751.00,85.44 750.50,95.77 750.00,81.42 749.50,84.65 749.00,84.39 748.50,80.10 748.00,86.79 747.50,67.34 747.00,91.17 746.50,77.92 746.00,89.39 745.50,85.69 745.00,86.44 744.50,94.83 744.00,71.99 743.50,92.87 743.00,68.15 742.50,99.03 742.00,65.07 741.50,52.65 741.00,52.66 740.50,66.41 740.00,73.25 739.50,82.93 739.00,99.50 738.50,92.04 738.00,99.50 737.50,89.39 737.00,98.83 736.50,85.26 736.00,91.65 735.50,79.95 735.00,78.26 734.50,93.75 734.00,89.18 733.50,90.67 733.00,90.55 732.50,91.33 732.00,99.50 731.50,99.50 731.00,94.89 730.50,91.37 730.00,93.56 729.50,95.34 729.00,93.77 728.50,93.68 728.00,95.19 727.50,95.32 727.00,95.42 726.50,97.85 726.00,99.50 725.50,99.50 725.00,99.50 724.50,99.50 724.00,99.50 723.50,99.50 723.00,96.93 722.50,96.51 722.00,92.51 721.50,91.20 721.00,89.58 720.50,89.58 720.00,94.10 719.50,99.50 719.00,99.50 718.50,99.50 718.00,99.50 717.50,98.98 717.00,98.90 716.50,97.36 716.00,93.86 715.50,92.87 715.00,92.06 714.50,92.53 714.00,93.73 713.50,93.54 713.00,97.19 712.50,99.50 712.00,99.50 711.50,99.50 711.00,99.50 710.50,92.48 710.00,88.20 709.50,89.76 709.00,92.07 708.50,94.75 708.00,92.66 707.50,92.66 707.00,98.48 706.50,99.50 706.00,99.50 705.50,99.50 705.00,99.50 704.50,99.50 704.00,99.50 703.50,94.49 703.00,84.36 702.50,83.01 702.00,84.39 701.50,91.03 701.00,97.19 700.50,97.17 700.00,99.50 699.50,99.50 699.00,99.50 698.50,99.50 698.00,99.50 697.50,90.76 697.00,89.90 696.50,89.41 696.00,90.27 695.50,91.81 695.00,85.42 694.50,87.27 694.00,95.16 693.50,99.50 693.00,99.50 692.50,99.50 692.00,99.50 691.50,99.50 691.00,95.79 690.50,86.46 690.00,81.73 689.50,81.13 689.00,83.59 688.50,98.78 688.00,99.12 687.50,93.21 687.00,95.20 686.50,99.50 686.00,99.50 685.50,99.41 685.00,99.50 684.50,97.88 684.00,84.83 683.50,73.12 683.00,72.22 682.50,76.73 682.00,93.58 681.50,99.50 681.00,99.50 680.50,99.50 680.00,96.44 679.50,99.50 679.00,91.46 678.50,88.11 678.00,88.86 677.50,82.90 677.00,80.06 676.50,74.58 676.00,77.89 675.50,85.84 675.00,99.50 674.50,99.50 674.00,99.50 673.50,99.50 673.00,99.50 672.50,94.65 672.00,86.80 671.50,86.55 671.00,83.28 670.50,83.09 670.00,87.73 669.50,94.27 669.00,99.50 668.50,99.50 668.00,99.50 667.50,99.50 667.00,99.50 666.50,98.84 666.00,86.05 665.50,80.28 665.00,79.97 664.50,85.48 664.00,83.35 663.50,85.32 663.00,97.77 662.50,99.50 662.00,99.50 661.50,99.50 661.00,97.06 660.50,91.53 660.00,96.70 659.50,95.12 659.00,86.91 658.50,75.72 658.00,74.34 657.50,85.27 657.00,94.56 656.50,99.50 656.00,99.50 655.50,99.50 655.00,99.50 654.50,96.72 654.00,76.65 653.50,76.55 653.00,81.38 652.50,90.89 652.00,96.78 651.50,85.48 651.00,86.41 650.50,99.12 650.00,99.50 649.50,99.50 649.00,99.50 648.50,99.50 648.00,97.74 647.50,82.49 647.00,71.44 646.50,71.48 646.00,85.30 645.50,99.50 645.00,99.50 644.50,99.50 644.00,99.50 643.50,99.50 643.00,99.50 642.50,94.62 642.00,82.75 641.50,80.95 641.00,84.77 640.50,94.32 640.00,85.40 639.50,85.68 639.00,91.49 638.50,99.50 638.00,99.50 637.50,91.16 637.00,79.15 636.50,79.99 636.00,94.27 635.50,99.50 635.00,84.67 634.50,80.91 634.00,88.09 633.50,99.50 633.00,99.50 632.50,93.96 632.00,84.17 631.50,84.46 631.00,84.29 630.50,77.87 630.00,76.22 629.50,85.19 629.00,94.64 628.50,99.50 628.00,99.50 627.50,99.50 627.00,99.50 626.50,99.50 626.00,74.37 625.50,63.21 625.00,62.66 624.50,62.89 624.00,78.20 623.50,76.14 623.00,77.92 622.50,99.50 622.00,99.50 621.50,99.50 621.00,99.50 620.50,91.31 620.00,83.19 619.50,77.28 619.00,67.82 618.50,68.61 618.00,68.10 617.50,65.74 617.00,87.26 616.50,99.50 616.00,99.50 615.50,99.50 615.00,98.31 614.50,95.29 614.00,93.64 613.50,87.88 613.00,87.95 612.50,87.80 612.00,77.42 611.50,73.17 611.00,81.70 610.50,99.50 610.00,91.47 609.50,99.50 609.00,99.50 608.50,99.50 608.00,88.96 607.50,70.28 607.00,66.97 606.50,51.45 606.00,39.77 605.50,23.60 605.00,16.58 604.50,26.40 604.00,57.89 603.50,97.04 603.00,99.50 602.50,99.50 602.00,99.50 601.50,99.50 601.00,99.50 600.50,99.50 600.00,99.50 599.50,99.50 599.00,32.54 598.50,2.50 598.00,-0.20 597.50,-0.25 597.00,-0.25 596.50,-0.21 596.00,8.78 595.50,27.14 595.00,68.35 594.50,99.50 594.00,99.50 593.50,99.50 593.00,99.50 592.50,99.50 592.00,99.50 591.50,99.50 591.00,66.63 590.50,25.99 590.00,1.54 589.50,-0.32 589.00,-0.32 588.50,-0.27 588.00,-0.26 587.50,18.22 587.00,83.22 586.50,99.50 586.00,99.50 585.50,99.50 585.00,99.50 584.50,99.50 584.00,99.50 583.50,38.68 583.00,5.94 582.50,-0.30 582.00,-0.29 581.50,-0.26 581.00,1.81 580.50,46.40 580.00,99.50 579.50,99.50 579.00,99.50 578.50,99.50 578.00,99.50 577.50,39.28 577.00,1.20 576.50,-0.29 576.00,-0.26 575.50,-0.25 575.00,57.55 574.50,99.50 574.00,99.50 573.50,99.50 573.00,14.26 572.50,-0.26 572.00,-0.26 571.50,-0.16 571.00,99.50 570.50,98.00 570.00,-0.22 569.50,-0.20 569.00,96.13 568.50,97.45 568.00,97.37 567.50,98.85 567.00,97.65 566.50,99.50 566.00,97.41 565.50,99.50 565.00,96.86 564.50,96.96 564.00,96.81 563.50,97.20 563.00,97.54 562.50,96.18 562.00,98.57 561.50,96.54 561.00,98.84 560.50,95.64 560.00,96.54 559.50,96.08 559.00,95.77 558.50,96.25 558.00,94.78 557.50,98.06 557.00,94.18 556.50,97.35 556.00,94.17 555.50,96.70 555.00,95.26 554.50,94.54 554.00,95.91 553.50,94.17 553.00,98.18 552.50,93.06 552.00,98.66 551.50,95.13 551.00,94.88 550.50,93.26 550.00,94.35 549.50,96.73 549.00,93.43 548.50,96.08 548.00,94.99 547.50,99.50 547.00,92.24 546.50,91.11 546.00,93.71 545.50,95.51 545.00,95.73 544.50,89.57 544.00,98.17 543.50,91.58 543.00,93.87 542.50,90.18 542.00,94.35 541.50,93.32 541.00,90.91 540.50,95.54 540.00,94.98 539.50,99.50 539.00,88.41 538.50,99.50 538.00,91.92 537.50,88.49 537.00,89.25 536.50,93.01 536.00,98.80 535.50,88.13 535.00,90.50 534.50,84.93 534.00,94.43 533.50,84.03 533.00,85.52 532.50,74.51 532.00,66.36 531.50,60.30 531.00,43.87 530.50,49.70 530.00,51.77 529.50,62.03 529.00,71.23 528.50,98.78 528.00,99.50 527.50,99.50 527.00,99.50 526.50,99.50 526.00,99.50 525.50,99.50 525.00,92.75 524.50,49.02 524.00,-0.16 523.50,-0.15 523.00,-0.19 522.50,-0.18 522.00,-0.17 521.50,-0.14 521.00,28.55 520.50,70.76 520.00,99.50 519.50,99.50 519.00,99.50 518.50,99.50 518.00,99.50 517.50,99.50 517.00,99.50 516.50,78.23 516.00,31.94 515.50,5.76 515.00,-0.11 514.50,-0.20 514.00,-0.21 513.50,1.84 513.00,18.83 512.50,68.21 512.00,99.50 511.50,99.50 511.00,99.50 510.50,99.50 510.00,99.50 509.50,99.50 509.00,71.52 508.50,20.82 508.00,0.56 507.50,-0.20 507.00,-0.05 506.50,10.20 506.00,37.16 505.50,95.41 505.00,99.50 504.50,99.50 504.00,99.50 503.50,99.50 503.00,91.58 502.50,22.91 502.00,0.03 501.50,-0.21 501.00,7.10 500.50,52.56 500.00,99.50 499.50,99.50 499.00,99.50 498.50,58.20 498.00,15.29 497.50,0.24 497.00,-0.21 496.50,99.50 496.00,99.50 495.50,5.77 495.00,-0.15 494.50,84.47 494.00,96.27 493.50,97.57 493.00,96.78 492.50,98.01 492.00,97.02 491.50,99.16 491.00,96.70 490.50,97.05 490.00,96.65 489.50,97.06 489.00,97.20 488.50,94.93 488.00,96.62 487.50,94.81 487.00,98.52 486.50,95.51 486.00,98.15 485.50,95.32 485.00,96.41 484.50,95.48 484.00,96.25 483.50,96.37 483.00,95.11 482.50,98.27 482.00,95.12 481.50,97.78 481.00,93.69 480.50,95.56 480.00,93.69 479.50,95.45 479.00,94.47 478.50,93.76 478.00,98.22 477.50,91.64 477.00,95.73 476.50,90.89 476.00,96.12 475.50,92.17 475.00,92.46 474.50,91.69 474.00,89.83 473.50,97.05 473.00,86.27 472.50,94.40 472.00,86.40 471.50,89.49 471.00,88.26 470.50,87.78 470.00,89.00 469.50,84.16 469.00,95.06 468.50,84.17 468.00,94.93 467.50,89.57 467.00,88.56 466.50,85.99 466.00,86.02 465.50,86.63 465.00,79.13 464.50,90.58 464.00,83.00 463.50,88.60 463.00,83.15 462.50,86.21 462.00,81.27 461.50,79.80 461.00,73.96 460.50,81.10 460.00,87.42 459.50,76.77 459.00,82.90 458.50,70.06 458.00,75.42 457.50,70.80 457.00,76.16 456.50,78.63 456.00,82.71 455.50,84.76 455.00,68.79 454.50,82.14 454.00,65.64 453.50,72.76 453.00,65.81 452.50,71.06 452.00,64.73 451.50,62.52 451.00,69.90 450.50,59.52 450.00,64.51 449.50,45.32 449.00,69.29 448.50,32.64 448.00,30.70 447.50,63.28 447.00,36.26 446.50,63.98 446.00,78.97 445.50,81.75 445.00,93.52 444.50,98.76 444.00,98.77 443.50,99.13 443.00,99.50 442.50,99.50 442.00,98.90 441.50,98.98 441.00,99.00 440.50,98.95 440.00,99.24 439.50,99.27 439.00,99.50 438.50,98.97 438.00,98.79 437.50,98.98 437.00,99.10 436.50,98.62 436.00,98.90 435.50,98.40 435.00,98.75 434.50,99.35 434.00,99.50 433.50,98.97 433.00,99.01 432.50,99.13 432.00,98.78 431.50,98.92 431.00,99.12 430.50,99.21 430.00,98.93 429.50,99.03 429.00,98.82 428.50,99.08 428.00,99.50 427.50,99.45 427.00,99.29 426.50,99.02 426.00,99.06 425.50,98.56 425.00,98.07 424.50,98.28 424.00,98.75 423.50,99.50 423.00,99.50 422.50,99.33 422.00,99.37 421.50,99.41 421.00,99.42 420.50,99.08 420.00,98.73 419.50,98.66 419.00,98.24 418.50,98.26 418.00,98.64 417.50,99.20 417.00,99.45 416.50,99.07 416.00,98.50 415.50,98.85 415.00,99.25 414.50,98.93 414.00,98.78 413.50,97.93 413.00,97.99 412.50,98.78 412.00,99.05 411.50,98.69 411.00,98.25 410.50,98.51 410.00,99.22 409.50,98.60 409.00,98.35 408.50,97.71 408.00,97.69 407.50,98.52 407.00,98.29 406.50,98.80 406.00,97.49 405.50,97.51 405.00,97.61 404.50,96.78 404.00,96.64 403.50,96.46 403.00,96.20 402.50,96.96 402.00,96.95 401.50,97.52 401.00,98.34 400.50,97.31 400.00,96.60 399.50,96.14 399.00,96.99 398.50,96.08 398.00,96.70 397.50,97.13 397.00,94.54 396.50,93.76 396.00,88.90 395.50,91.43 395.00,90.59 394.50,92.13 394.00,94.61 393.50,95.13 393.00,92.31 392.50,92.61 392.00,92.91 391.50,93.02 391.00,94.39 390.50,94.84 390.00,91.95 389.50,94.35 389.00,91.34 388.50,88.57 388.00,90.80 387.50,92.30 387.00,90.69 386.50,92.65 386.00,91.75 385.50,94.65 385.00,95.87 384.50,94.45 384.00,94.99 383.50,94.76 383.00,96.30 382.50,97.27 382.00,96.88 381.50,98.40 381.00,97.90 380.50,98.06 380.00,97.99 379.50,98.23 379.00,97.84 378.50,98.21 378.00,99.50 377.50,99.14 377.00,98.56 376.50,98.75 376.00,98.88 375.50,98.89 375.00,98.71 374.50,99.09 374.00,99.50 373.50,99.50 373.00,99.00 372.50,98.64 372.00,98.55 371.50,99.25 371.00,99.24 370.50,99.06 370.00,99.05 369.50,99.46 369.00,99.48 368.50,99.43 368.00,99.29 367.50,99.50 367.00,99.13 366.50,99.10 366.00,99.35 365.50,99.50 365.00,99.50 364.50,99.01 364.00,98.53 363.50,98.83 363.00,99.50 362.50,99.47 362.00,99.33 361.50,99.26 361.00,99.08 360.50,98.86 360.00,98.31 359.50,98.26 359.00,98.13 358.50,98.93 358.00,99.37 357.50,99.25 357.00,99.32 356.50,99.40 356.00,99.13 355.50,98.35 355.00,98.58 354.50,98.95 354.00,98.99 353.50,98.83 353.00,98.67 352.50,98.45 352.00,98.95 351.50,99.13 351.00,98.47 350.50,98.18 350.00,99.09 349.50,99.50 349.00,99.50 348.50,98.52 348.00,97.93 347.50,97.90 347.00,98.41 346.50,98.42 346.00,99.09 345.50,99.03 345.00,99.00 344.50,98.65 344.00,98.25 343.50,98.42 343.00,98.77 342.50,99.12 342.00,99.24 341.50,99.50 341.00,99.50 340.50,99.50 340.00,99.45 339.50,98.95 339.00,99.26 338.50,99.50 338.00,99.50 337.50,98.86 337.00,99.10 336.50,98.76 336.00,99.50 335.50,98.39 335.00,98.00 334.50,98.03 334.00,98.57 333.50,98.52 333.00,98.08 332.50,97.51 332.00,95.91 331.50,96.25 331.00,95.27 330.50,95.71 330.00,95.11 329.50,93.99 329.00,94.47 328.50,92.69 328.00,90.77 327.50,89.24 327.00,88.04 326.50,91.53 326.00,88.47 325.50,84.35 325.00,89.00 324.50,90.82 324.00,83.02 323.50,82.22 323.00,80.95 322.50,76.89 322.00,81.27 321.50,81.29 321.00,75.95 320.50,81.70 320.00,73.97 319.50,69.69 319.00,76.82 318.50,73.16 318.00,71.46 317.50,71.50 317.00,75.84 316.50,75.08 316.00,67.75 315.50,66.19 315.00,60.32 314.50,62.47 314.00,77.08 313.50,67.51 313.00,54.86 312.50,57.16 312.00,61.13 311.50,53.64 311.00,53.70 310.50,52.87 310.00,47.58 309.50,42.36 309.00,48.26 308.50,33.62 308.00,39.34 307.50,48.98 307.00,10.36 306.50,38.94 306.00,26.00 305.50,30.71 305.00,11.66 304.50,21.96 304.00,27.41 303.50,19.94 303.00,19.53 302.50,11.97 302.00,39.72 301.50,5.07 301.00,43.19 300.50,21.12 300.00,15.11 299.50,33.48 299.00,24.76 298.50,6.52 298.00,4.85 297.50,19.39 297.00,16.10 296.50,6.15 296.00,1.94 295.50,3.58 295.00,1.70 294.50,1.51 294.00,32.26 293.50,1.83 293.00,1.58 292.50,2.02 292.00,2.22 291.50,1.21 291.00,1.31 290.50,64.83 290.00,6.15 289.50,13.06 289.00,21.77 288.50,2.11 288.00,0.35 287.50,0.83 287.00,27.22 286.50,0.17 286.00,76.44 285.50,0.69 285.00,99.50 284.50,99.19 284.00,98.92 283.50,97.79 283.00,97.72 282.50,98.31 282.00,98.54 281.50,98.74 281.00,99.50 280.50,99.50 280.00,99.50 279.50,99.50 279.00,98.65 278.50,98.22 278.00,97.93 277.50,97.67 277.00,98.38 276.50,98.75 276.00,98.85 275.50,99.50 275.00,99.50 274.50,99.50 274.00,98.47 273.50,97.98 273.00,98.43 272.50,99.04 272.00,99.23 271.50,98.70 271.00,98.58 270.50,97.52 270.00,97.56 269.50,98.34 269.00,99.02 268.50,99.50 268.00,99.50 267.50,99.50 267.00,98.31 266.50,96.28 266.00,95.68 265.50,96.67 265.00,97.52 264.50,99.20 264.00,99.12 263.50,98.96 263.00,98.21 262.50,97.28 262.00,96.26 261.50,96.50 261.00,97.31 260.50,97.83 260.00,97.54 259.50,96.66 259.00,95.32 258.50,95.99 258.00,97.15 257.50,97.46 257.00,97.18 256.50,95.90 256.00,96.31 255.50,97.24 255.00,96.27 254.50,95.05 254.00,94.38 253.50,92.77 253.00,96.35 252.50,94.43 252.00,93.60 251.50,95.73 251.00,92.85 250.50,94.79 250.00,92.89 249.50,92.91 249.00,93.37 248.50,90.04 248.00,86.91 247.50,89.48 247.00,93.62 246.50,90.34 246.00,85.69 245.50,81.02 245.00,85.71 244.50,91.67 244.00,72.73 243.50,80.94 243.00,87.86 242.50,89.62 242.00,93.57 241.50,91.67 241.00,88.40 240.50,86.17 240.00,87.16 239.50,92.48 239.00,94.08 238.50,94.69 238.00,94.88 237.50,95.68 237.00,95.73 236.50,96.28 236.00,95.20 235.50,99.50 235.00,98.81 234.50,96.21 234.00,94.30 233.50,95.43 233.00,97.77 232.50,99.50 232.00,99.50 231.50,99.50 231.00,99.50 230.50,99.50 230.00,98.46 229.50,97.73 229.00,96.96 228.50,98.64 228.00,97.68 227.50,97.57 227.00,98.85 226.50,98.29 226.00,97.93 225.50,97.70 225.00,98.94 224.50,99.50 224.00,99.50 223.50,98.41 223.00,97.81 222.50,98.54 222.00,99.21 221.50,97.66 221.00,95.54 220.50,94.64 220.00,96.87 219.50,99.50 219.00,99.50 218.50,99.01 218.00,99.16 217.50,99.50 217.00,99.50 216.50,96.89 216.00,96.38 215.50,97.30 215.00,99.50 214.50,99.50 214.00,99.11 213.50,98.11 213.00,98.40 212.50,97.41 212.00,97.44 211.50,98.70 211.00,99.50 210.50,99.50 210.00,97.84 209.50,96.30 209.00,96.42 208.50,98.86 208.00,99.01 207.50,98.12 207.00,98.63 206.50,99.05 206.00,99.50 205.50,96.80 205.00,95.34 204.50,95.79 204.00,99.46 203.50,99.50 203.00,99.50 202.50,99.50 202.00,98.77 201.50,98.72 201.00,96.31 200.50,94.72 200.00,95.41 199.50,97.70 199.00,98.58 198.50,97.41 198.00,97.70 197.50,99.50 197.00,99.50 196.50,99.50 196.00,98.44 195.50,97.95 195.00,97.67 194.50,97.66 194.00,96.04 193.50,92.15 193.00,94.37 192.50,97.03 192.00,98.99 191.50,98.64 191.00,97.63 190.50,99.50 190.00,99.46 189.50,98.62 189.00,96.28 188.50,94.08 188.00,93.59 187.50,92.83 187.00,93.36 186.50,96.18 186.00,98.39 185.50,97.27 185.00,95.93 184.50,94.92 184.00,96.61 183.50,96.42 183.00,95.42 182.50,94.40 182.00,96.93 181.50,95.15 181.00,94.49 180.50,91.60 180.00,91.79 179.50,94.83 179.00,99.23 178.50,99.50 178.00,97.35 177.50,96.81 177.00,96.96 176.50,99.50 176.00,98.94 175.50,97.20 175.00,97.64 174.50,95.94 174.00,94.27 173.50,92.27 173.00,91.70 172.50,94.36 172.00,93.86 171.50,94.54 171.00,99.50 170.50,99.50 170.00,99.50 169.50,99.50 169.00,96.23 168.50,94.84 168.00,91.85 167.50,92.34 167.00,95.08 166.50,95.03 166.00,96.18 165.50,97.44 165.00,98.90 164.50,99.50 164.00,99.50 163.50,99.50 163.00,99.50 162.50,99.38 162.00,98.30 161.50,93.92 161.00,90.06 160.50,87.38 160.00,90.66 159.50,94.18 159.00,98.89 158.50,99.50 158.00,99.50 157.50,99.50 157.00,99.50 156.50,99.50 156.00,94.53 155.50,94.32 155.00,93.76 154.50,96.39 154.00,98.91 153.50,95.80 153.00,94.39 152.50,94.53 152.00,98.17 151.50,99.50 151.00,99.50 150.50,99.50 150.00,99.50 149.50,99.50 149.00,96.48 148.50,94.08 148.00,93.53 147.50,94.14 147.00,97.19 146.50,99.50 146.00,99.50 145.50,99.11 145.00,99.21 144.50,99.50 144.00,99.50 143.50,99.50 143.00,99.50 142.50,97.27 142.00,93.95 141.50,93.08 141.00,93.33 140.50,90.96 140.00,92.21 139.50,93.41 139.00,98.89 138.50,99.50 138.00,99.50 137.50,99.50 137.00,99.34 136.50,99.50 136.00,96.92 135.50,92.04 135.00,90.26 134.50,90.26 134.00,93.17 133.50,95.44 133.00,94.85 132.50,94.83 132.00,97.96 131.50,99.50 131.00,99.50 130.50,99.50 130.00,99.50 129.50,97.38 129.00,92.37 128.50,92.16 128.00,91.61 127.50,92.49 127.00,98.13 126.50,99.50 126.00,99.50 125.50,99.50 125.00,99.50 124.50,99.50 124.00,99.50 123.50,99.50 123.00,99.50 122.50,96.53 122.00,91.82 121.50,90.81 121.00,93.89 120.50,98.29 120.00,99.50 119.50,99.50 119.00,99.50 118.50,99.50 118.00,99.50 117.50,97.45 117.00,97.57 116.50,97.00 116.00,97.19 115.50,95.28 115.00,91.36 114.50,92.97 114.00,95.15 113.50,93.35 113.00,83.31 112.50,74.95 112.00,64.60 111.50,50.54 111.00,38.71 110.50,34.90 110.00,35.49 109.50,46.48 109.00,67.93 108.50,99.50 108.00,99.50 107.50,99.50 107.00,99.50 106.50,99.50 106.00,99.50 105.50,99.50 105.00,98.03 104.50,36.58 104.00,6.53 103.50,-0.20 103.00,-0.21 102.50,-0.21 102.00,-0.19 101.50,7.39 101.00,32.07 100.50,72.29 100.00,99.50 99.50,99.50 99.00,99.50 98.50,99.50 98.00,99.50 97.50,99.50 97.00,99.50 96.50,60.37 96.00,21.83 95.50,0.26 95.00,-0.30 94.50,-0.26 94.00,-0.21 93.50,-0.21 93.00,26.83 92.50,94.36 92.00,99.50 91.50,99.50 91.00,99.50 90.50,99.50 90.00,99.50 89.50,99.50 89.00,28.31 88.50,2.35 88.00,-0.25 87.50,-0.23 87.00,-0.20 86.50,6.18 86.00,66.81 85.50,99.50 85.00,99.50 84.50,99.50 84.00,99.50 83.50,99.50 83.00,22.56 82.50,-0.22 82.00,-0.23 81.50,-0.20 81.00,5.51 80.50,84.36 80.00,99.50 79.50,99.50 79.00,63.50 78.50,3.26 78.00,-0.21 77.50,-0.20 77.00,81.35 76.50,99.50 76.00,25.38 75.50,-0.15 75.00,32.15 74.50,99.50 74.00,85.91 73.50,80.34 73.00,80.53 72.50,84.29 72.00,88.10 71.50,83.10 71.00,85.98 70.50,97.29 70.00,99.50 69.50,99.50 69.00,99.50 68.50,99.50 68.00,99.50 67.50,99.50 67.00,81.62 66.50,70.65 66.00,65.23 65.50,76.80 65.00,99.47 64.50,99.50 64.00,99.50 63.50,99.50 63.00,99.50 62.50,96.50 62.00,95.81 61.50,99.50 61.00,99.50 60.50,88.54 60.00,81.59 59.50,81.52 59.00,86.09 58.50,99.50 58.00,99.50 57.50,99.50 57.00,86.05 56.50,81.89 56.00,91.11 55.50,99.50 55.00,99.50 54.50,85.81 54.00,85.38 53.50,91.88 53.00,99.50 52.50,79.53 52.00,78.03 51.50,87.28 51.00,99.50 50.50,99.50 50.00,94.95 49.50,99.50 49.00,99.50 48.50,99.50 48.00,99.50 47.50,77.11 47.00,72.70 46.50,86.56 46.00,85.02 45.50,72.36 45.00,62.70 44.50,76.67 44.00,99.50 43.50,99.50 43.00,95.46 42.50,86.23 42.00,72.62 41.50,40.38 41.00,21.62 40.50,19.65 40.00,29.34 39.50,47.41 39.00,57.50 38.50,87.36 38.00,99.50 37.50,99.50 37.00,99.50 36.50,99.50 36.00,99.50 35.50,99.50 35.00,95.13 34.50,37.75 34.00,8.19 33.50,-0.20 33.00,-0.21 32.50,-0.21 32.00,-0.21 31.50,6.97 31.00,33.76 30.50,74.42 30.00,99.50 29.50,99.50 29.00,99.50 28.50,99.50 28.00,99.50 27.50,99.50 27.00,99.50 26.50,69.84 26.00,27.52 25.50,1.84 25.00,-0.30 24.50,-0.26 24.00,-0.22 23.50,-0.21 23.00,15.60 22.50,82.37 22.00,99.50 21.50,99.50 21.00,99.50 20.50,99.50 20.00,99.50 19.50,99.50 19.00,40.56 18.50,6.63 18.00,-0.24 17.50,-0.23 17.00,-0.20 16.50,1.09 16.00,41.74 15.50,99.50 15.00,99.50 14.50,99.50 14.00,99.50 13.50,99.50 13.00,41.83 12.50,1.54 12.00,-0.23 11.50,-0.21 11.00,-0.20 10.50,55.05 10.00,99.50 9.50,99.50 9.00,99.50 8.50,14.65 8.00,-0.21 7.50,-0.21 7.00,-0.14 6.50,99.50 6.00,99.50 5.50,-0.19 5.00,-0.19 4.50,94.83 4.00,98.64 3.50,98.35 3.00,98.24 2.50,98.64 2.00,98.18 1.50,98.24 1.00,98.38 0.50,98.30 0.00,98.53" /> 
</g>
</svg>